<svg width="35" height="38" viewBox="0 0 35 38" fill="none" xmlns="http://www.w3.org/2000/svg">
<g filter="url(#filter0_d_171_37)">
<mask id="mask0_171_37" style="mask-type:alpha" maskUnits="userSpaceOnUse" x="0" y="0" width="35" height="35">
<rect x="5" y="5" width="25" height="25" fill="#D9D9D9" stroke="white" stroke-width="10"/>
</mask>
<g mask="url(#mask0_171_37)">
<mask id="path-2-inside-1_171_37" fill="white">
<path d="M13.125 29.1667V18.1198C13.125 17.7309 13.1979 17.3603 13.3438 17.0079C13.4896 16.6554 13.6962 16.3455 13.9635 16.0782L21.2917 8.75004H18.0104V5.83337H26.25V14.073H23.3333V10.7917L16.0417 18.0834V29.1667H13.125Z"/>
</mask>
<path d="M13.125 29.1667V18.1198C13.125 17.7309 13.1979 17.3603 13.3438 17.0079C13.4896 16.6554 13.6962 16.3455 13.9635 16.0782L21.2917 8.75004H18.0104V5.83337H26.25V14.073H23.3333V10.7917L16.0417 18.0834V29.1667H13.125Z" fill="white"/>
<path d="M13.125 29.1667H3.125V39.1667H13.125V29.1667ZM13.9635 16.0782L21.0346 23.1492L13.9635 16.0782ZM21.2917 8.75004L28.3627 15.8211L45.4338 -1.24996H21.2917V8.75004ZM18.0104 8.75004H8.01042V18.75H18.0104V8.75004ZM18.0104 5.83337V-4.16663H8.01042V5.83337H18.0104ZM26.25 5.83337H36.25V-4.16663H26.25V5.83337ZM26.25 14.073V24.073H36.25V14.073H26.25ZM23.3333 14.073H13.3333V24.073H23.3333V14.073ZM23.3333 10.7917H33.3333V-13.3504L16.2623 3.72064L23.3333 10.7917ZM16.0417 18.0834L8.9706 11.0123L6.04167 13.9412V18.0834H16.0417ZM16.0417 29.1667V39.1667H26.0417V29.1667H16.0417ZM23.125 29.1667V18.1198H3.125V29.1667H23.125ZM23.125 18.1198C23.125 19.0166 22.9497 19.9474 22.5839 20.8314L4.10358 13.1843C3.44612 14.7732 3.125 16.4453 3.125 18.1198H23.125ZM22.5839 20.8314C22.2317 21.6826 21.705 22.4788 21.0346 23.1492L6.89247 9.0071C5.68736 10.2122 4.74748 11.6283 4.10358 13.1843L22.5839 20.8314ZM21.0346 23.1492L28.3627 15.8211L14.2206 1.67897L6.89247 9.0071L21.0346 23.1492ZM21.2917 -1.24996H18.0104V18.75H21.2917V-1.24996ZM28.0104 8.75004V5.83337H8.01042V8.75004H28.0104ZM18.0104 15.8334H26.25V-4.16663H18.0104V15.8334ZM16.25 5.83337V14.073H36.25V5.83337H16.25ZM26.25 4.07296H23.3333V24.073H26.25V4.07296ZM33.3333 14.073V10.7917H13.3333V14.073H33.3333ZM16.2623 3.72064L8.9706 11.0123L23.1127 25.1544L30.4044 17.8628L16.2623 3.72064ZM6.04167 18.0834V29.1667H26.0417V18.0834H6.04167ZM16.0417 19.1667H13.125V39.1667H16.0417V19.1667Z" fill="white" mask="url(#path-2-inside-1_171_37)"/>
</g>
</g>
<defs>
<filter id="filter0_d_171_37" x="9.125" y="5.83337" width="21.125" height="31.3334" filterUnits="userSpaceOnUse" color-interpolation-filters="sRGB">
<feFlood flood-opacity="0" result="BackgroundImageFix"/>
<feColorMatrix in="SourceAlpha" type="matrix" values="0 0 0 0 0 0 0 0 0 0 0 0 0 0 0 0 0 0 127 0" result="hardAlpha"/>
<feOffset dy="4"/>
<feGaussianBlur stdDeviation="2"/>
<feComposite in2="hardAlpha" operator="out"/>
<feColorMatrix type="matrix" values="0 0 0 0 0 0 0 0 0 0 0 0 0 0 0 0 0 0 0.25 0"/>
<feBlend mode="normal" in2="BackgroundImageFix" result="effect1_dropShadow_171_37"/>
<feBlend mode="normal" in="SourceGraphic" in2="effect1_dropShadow_171_37" result="shape"/>
</filter>
</defs>
</svg>
