<svg width="35" height="35" viewBox="0 0 35 35" fill="none" xmlns="http://www.w3.org/2000/svg">
<mask id="mask0_171_42" style="mask-type:alpha" maskUnits="userSpaceOnUse" x="0" y="0" width="35" height="35">
<rect x="5" y="5" width="25" height="25" fill="#D9D9D9" stroke="white" stroke-width="10"/>
</mask>
<g mask="url(#mask0_171_42)">
<mask id="path-2-inside-1_171_42" fill="white">
<path d="M18.9583 29.1666V18.0833L11.6667 10.7916V14.0728H8.75V5.83325H16.9896V8.74992H13.7083L21.0365 16.078C21.3038 16.3454 21.5104 16.6553 21.6563 17.0077C21.8021 17.3602 21.875 17.7308 21.875 18.1197V29.1666H18.9583Z"/>
</mask>
<path d="M18.9583 29.1666V18.0833L11.6667 10.7916V14.0728H8.75V5.83325H16.9896V8.74992H13.7083L21.0365 16.078C21.3038 16.3454 21.5104 16.6553 21.6563 17.0077C21.8021 17.3602 21.875 17.7308 21.875 18.1197V29.1666H18.9583Z" fill="white"/>
<path d="M18.9583 29.1666H8.95833V39.1666H18.9583V29.1666ZM18.9583 18.0833H28.9583V13.9411L26.0294 11.0122L18.9583 18.0833ZM11.6667 10.7916L18.7377 3.72052L1.66667 -13.3506V10.7916H11.6667ZM11.6667 14.0728V24.0728H21.6667V14.0728H11.6667ZM8.75 14.0728H-1.25V24.0728H8.75V14.0728ZM8.75 5.83325V-4.16675H-1.25V5.83325H8.75ZM16.9896 5.83325H26.9896V-4.16675H16.9896V5.83325ZM16.9896 8.74992V18.7499H26.9896V8.74992H16.9896ZM13.7083 8.74992V-1.25008H-10.4338L6.63727 15.821L13.7083 8.74992ZM21.875 29.1666V39.1666H31.875V29.1666H21.875ZM28.9583 29.1666V18.0833H8.95833V29.1666H28.9583ZM26.0294 11.0122L18.7377 3.72052L4.5956 17.8627L11.8873 25.1543L26.0294 11.0122ZM1.66667 10.7916V14.0728H21.6667V10.7916H1.66667ZM11.6667 4.07283H8.75V24.0728H11.6667V4.07283ZM18.75 14.0728V5.83325H-1.25V14.0728H18.75ZM8.75 15.8333H16.9896V-4.16675H8.75V15.8333ZM6.98958 5.83325V8.74992H26.9896V5.83325H6.98958ZM16.9896 -1.25008H13.7083V18.7499H16.9896V-1.25008ZM6.63727 15.821L13.9654 23.1491L28.1075 9.00698L20.7794 1.67885L6.63727 15.821ZM13.9654 23.1491C13.295 22.4787 12.7683 21.6825 12.4161 20.8312L30.8964 13.1842C30.2525 11.6281 29.3126 10.2121 28.1075 9.00698L13.9654 23.1491ZM12.4161 20.8312C12.0503 19.9472 11.875 19.0165 11.875 18.1197H31.875C31.875 16.4452 31.5539 14.7731 30.8964 13.1842L12.4161 20.8312ZM11.875 18.1197V29.1666H31.875V18.1197H11.875ZM21.875 19.1666H18.9583V39.1666H21.875V19.1666Z" fill="white" mask="url(#path-2-inside-1_171_42)"/>
</g>
</svg>
