<svg width="35" height="35" viewBox="0 0 35 35" fill="none" xmlns="http://www.w3.org/2000/svg">
<mask id="mask0_171_47" style="mask-type:alpha" maskUnits="userSpaceOnUse" x="0" y="0" width="35" height="35">
<rect width="35" height="35" fill="#D9D9D9"/>
</mask>
<g mask="url(#mask0_171_47)">
<path d="M5.83341 29.1667C5.03133 29.1667 4.3447 28.8811 3.77352 28.3099C3.20234 27.7388 2.91675 27.0521 2.91675 26.25V8.75004C2.91675 7.94796 3.20234 7.26133 3.77352 6.69014C4.3447 6.11896 5.03133 5.83337 5.83341 5.83337H14.5834L17.5001 8.75004H29.1667C29.9688 8.75004 30.6555 9.03563 31.2266 9.60681C31.7978 10.178 32.0834 10.8646 32.0834 11.6667V16.4792C31.6216 16.2848 31.1416 16.1572 30.6433 16.0964C30.145 16.0356 29.6529 16.0417 29.1667 16.1146V11.6667H16.297L13.3803 8.75004H5.83341V26.25H17.6459L17.5001 26.3959V29.1667H5.83341ZM20.4167 32.0834V27.599L28.474 19.5782C28.6928 19.3594 28.9358 19.2014 29.2032 19.1042C29.4706 19.007 29.7379 18.9584 30.0053 18.9584C30.297 18.9584 30.5765 19.0131 30.8438 19.1224C31.1112 19.2318 31.3542 19.3959 31.573 19.6146L32.922 20.9636C33.1164 21.1823 33.2683 21.4254 33.3777 21.6927C33.4871 21.9601 33.5417 22.2275 33.5417 22.4948C33.5417 22.7622 33.4931 23.0356 33.3959 23.3151C33.2987 23.5947 33.1407 23.8438 32.922 24.0625L24.9011 32.0834H20.4167ZM22.6042 29.8959H23.9897L28.4011 25.448L27.7449 24.7553L27.0522 24.099L22.6042 28.5105V29.8959ZM27.7449 24.7553L27.0522 24.099L28.4011 25.448L27.7449 24.7553Z" fill="white"/>
</g>
</svg>
