<svg width="35" height="35" viewBox="0 0 35 35" fill="none" xmlns="http://www.w3.org/2000/svg">
<mask id="mask0_171_32" style="mask-type:alpha" maskUnits="userSpaceOnUse" x="0" y="0" width="35" height="35">
<rect width="35" height="35" fill="#D9D9D9"/>
</mask>
<g mask="url(#mask0_171_32)">
<path d="M22.8594 27.3438C23.2726 26.5417 23.5886 25.697 23.8073 24.8099C24.0261 23.9227 24.1355 23.0052 24.1355 22.0573C24.1355 20.1128 23.7101 18.3325 22.8594 16.7161C22.0087 15.0998 20.8542 13.7569 19.3959 12.6875L16.0417 16.0417V4.375H27.7084L24.3542 7.72917C25.6181 8.87153 26.6268 10.2326 27.3802 11.8125C28.1337 13.3924 28.5105 15.1059 28.5105 16.9531C28.5105 19.1649 27.994 21.1701 26.961 22.9688C25.928 24.7674 24.5608 26.2257 22.8594 27.3438ZM7.29171 30.625L10.6459 27.2708C9.35768 26.1285 8.34292 24.7674 7.6016 23.1875C6.86028 21.6076 6.48962 19.8941 6.48962 18.0469C6.48962 15.8351 7.00612 13.8299 8.0391 12.0312C9.07209 10.2326 10.4514 8.77431 12.1771 7.65625C11.7639 8.45833 11.4419 9.30295 11.211 10.1901C10.9801 11.0773 10.8646 11.9948 10.8646 12.9427C10.8646 14.8872 11.296 16.6675 12.1589 18.2839C13.0217 19.9002 14.1702 21.2431 15.6042 22.3125L18.9584 18.9583V30.625H7.29171Z" fill="white"/>
</g>
</svg>
