<svg width="37" height="37" viewBox="0 0 37 37" fill="none" xmlns="http://www.w3.org/2000/svg">
<mask id="mask0_171_23" style="mask-type:alpha" maskUnits="userSpaceOnUse" x="0" y="0" width="37" height="37">
<rect width="37" height="37" fill="#D9D9D9"/>
</mask>
<g mask="url(#mask0_171_23)">
<path d="M-1 33.75V18.3333L10.6385 10.625L22.277 18.3333L19.9078 20.5302L10.6385 14.4021L2.32529 19.875V30.6667H5.65058V22.9583H15.6264V33.75H12.3012V26.0417H8.97587V33.75H-1ZM35.5782 6V21.6094C35.1071 21.1469 34.5945 20.7293 34.0402 20.3568C33.486 19.9842 32.8902 19.6566 32.2529 19.374V9.08333H17.2891V11.2417L13.9638 9.00625V6H35.5782ZM25.6023 15.25H28.9276V12.1667H25.6023V15.25ZM27.265 36.8333C24.965 36.8333 23.0044 36.0818 21.3834 34.5786C19.7623 33.0755 18.9517 31.2576 18.9517 29.125C18.9517 26.9924 19.7623 25.1745 21.3834 23.6714C23.0044 22.1682 24.965 21.4167 27.265 21.4167C29.565 21.4167 31.5255 22.1682 33.1466 23.6714C34.7676 25.1745 35.5782 26.9924 35.5782 29.125C35.5782 31.2576 34.7676 33.0755 33.1466 34.5786C31.5255 36.0818 29.565 36.8333 27.265 36.8333ZM26.4336 33.75H28.0963V29.8958H32.2529V28.3542H28.0963V24.5H26.4336V28.3542H22.277V29.8958H26.4336V33.75Z" fill="#BCB4D7"/>
</g>
</svg>
