<svg width="35" height="35" viewBox="0 0 35 35" fill="none" xmlns="http://www.w3.org/2000/svg">
<mask id="mask0_171_27" style="mask-type:alpha" maskUnits="userSpaceOnUse" x="0" y="0" width="35" height="35">
<rect width="35" height="35" fill="#D9D9D9"/>
</mask>
<g mask="url(#mask0_171_27)">
<path d="M4.84452 27.1667C3.97949 27.1667 3.23898 26.8811 2.62298 26.3099C2.00698 25.7388 1.69897 25.0521 1.69897 24.25V6.75004C1.69897 5.94796 2.00698 5.26133 2.62298 4.69014C3.23898 4.11896 3.97949 3.83337 4.84452 3.83337H14.2812L17.4267 6.75004H30.0089C30.8739 6.75004 31.6144 7.03563 32.2304 7.60681C32.8464 8.17799 33.1544 8.86462 33.1544 9.66671V24.25C33.1544 25.0521 32.8464 25.7388 32.2304 26.3099C31.6144 26.8811 30.8739 27.1667 30.0089 27.1667H4.84452ZM4.84452 24.25H30.0089V9.66671H16.1292L12.9836 6.75004H4.84452V24.25Z" fill="white"/>
</g>
</svg>
